{"title":"2.Headed.Shark.Attack.2012.BRRip.XviD-","uid":7039008,"size":1457110388,"categoryP":"video","categoryS":"movies","magnet":"?xt=urn:btih:40b7502579cd605efc41a0c26e5bb260fb899bd1&amp;dn=2.Headed.Shark.Attack.2012.BRRip.XviD-&amp;tr=udp%3A%2F%2Ftracker.openbittorrent.com%3A80&amp;tr=udp%3A%2F%2Fopen.demonii.com%3A1337&amp;tr=udp%3A%2F%2Ftracker.coppersurfer.tk%3A6969&amp;tr=udp%3A%2F%2Fexodus.desync.com%3A6969","seeders":0,"leechers":0,"uploader":"moviesp2p","files":1,"time":1329474161,"description":"More info www moviesp2p com\n\nFormat                                   : AVI\nFormat/Info                              : Audio Video Interleave\nFile size                                : 1.36 GiB\nDuration                                 : 1h 27mn\nOverall bit rate                         : 2 210 Kbps\n\nVideo\nID                                       : 0\nFormat                                   : MPEG-4 Visual\nFormat profile                           : Advanced Simple@L5\nFormat settings, BVOP                    : 2\nFormat settings, QPel                    : No\nFormat settings, GMC                     : No warppoints\nFormat settings, Matrix                  : Default (H.263)\nCodec ID                                 : XVID\nCodec ID/Hint                            : XviD\nDuration                                 : 1h 27mn\nBit rate                                 : 1 815 Kbps\nWidth                                    : 720 pixels\nHeight                                   : 400 pixels\nDisplay aspect ratio                     : 16:9\nFrame rate                               : 23.976 fps\nColor space                              : YUV\nChroma subsampling                       : 4:2:0\nBit depth                                : 8 bits\nScan type                                : Progressive\nCompression mode                         : Lossy\nBits/(Pixel*Frame)                       : 0.263\nStream size                              : 1.11 GiB (82%)\nWriting library                          : XviD 64\n\nAudio\nID                                       : 1\nFormat                                   : AC-3\nFormat/Info                              : Audio Coding 3\nMode extension                           : CM (complete main)\nCodec ID                                 : 2000\nDuration                                 : 1h 27mn\nSource duration                          : 1h 27mn\nBit rate mode                            : Constant\nBit rate                                 : 384 Kbps\nChannel(s)                               : 6 channels\nChannel positions                        : Front: L C R, Side: L R, LFE\nSampling rate                            : 48.0 KHz\nBit depth                                : 16 bits\nCompression mode                         : Lossy\nStream size                              : 241 MiB (17%)\nAlignment                                : Aligned on interleaves\nInterleave, duration                     : 32 ms (0.77 video frame)\n","torrent":{"xt":"urn:btih:40b7502579cd605efc41a0c26e5bb260fb899bd1","amp;dn":"2.Headed.Shark.Attack.2012.BRRip.XviD-","amp;tr":["udp%3A%2F%2Ftracker.openbittorrent.com%3A80","udp%3A%2F%2Fopen.demonii.com%3A1337","udp%3A%2F%2Ftracker.coppersurfer.tk%3A6969","udp%3A%2F%2Fexodus.desync.com%3A6969"],"infoHash":"40b7502579cd605efc41a0c26e5bb260fb899bd1","infoHashBuffer":{"type":"Buffer","data":[64,183,80,37,121,205,96,94,252,65,160,194,110,91,178,96,251,137,155,209]},"announce":[],"urlList":[]}}